<mxfile host="app.diagrams.net" modified="2024-05-29T04:46:55.172Z" agent="Mozilla/5.0 (Windows NT 10.0; Win64; x64) AppleWebKit/537.36 (KHTML, like Gecko) Chrome/125.0.0.0 Safari/537.36 Edg/125.0.0.0" etag="-uC7PBYRT_9B2IxocpWz" version="24.3.1" type="device">
  <diagram name="第 1 页" id="5ZJ_Q6iQyp-TTIhezaSv">
    <mxGraphModel dx="1173" dy="631" grid="0" gridSize="10" guides="1" tooltips="1" connect="1" arrows="1" fold="1" page="1" pageScale="1" pageWidth="827" pageHeight="1169" math="0" shadow="0">
      <root>
        <mxCell id="0" />
        <mxCell id="1" parent="0" />
        <mxCell id="QKiuofCyyoErHjTDMTAX-13" value="&lt;p&gt;&lt;b&gt;&lt;i&gt;z&lt;span style=&quot;font-size: 10px;&quot;&gt;g&lt;/span&gt;&lt;/i&gt;&lt;/b&gt;&lt;/p&gt;" style="ellipse;whiteSpace=wrap;html=1;aspect=fixed;fillColor=#f8cecc;strokeColor=#b85450;" vertex="1" parent="1">
          <mxGeometry x="320" y="80" width="40" height="40" as="geometry" />
        </mxCell>
        <mxCell id="QKiuofCyyoErHjTDMTAX-15" value="&lt;p&gt;&lt;b&gt;&lt;i&gt;z&lt;span style=&quot;font-size: 10px;&quot;&gt;&lt;sub&gt;1&lt;/sub&gt;&lt;/span&gt;&lt;/i&gt;&lt;/b&gt;&lt;/p&gt;" style="ellipse;whiteSpace=wrap;html=1;aspect=fixed;fillColor=#dae8fc;strokeColor=#6c8ebf;" vertex="1" parent="1">
          <mxGeometry x="270" y="150" width="40" height="40" as="geometry" />
        </mxCell>
        <mxCell id="QKiuofCyyoErHjTDMTAX-16" value="&lt;p&gt;&lt;b&gt;&lt;i&gt;z&lt;sub&gt;2&lt;/sub&gt;&lt;/i&gt;&lt;/b&gt;&lt;/p&gt;" style="ellipse;whiteSpace=wrap;html=1;aspect=fixed;fillColor=#dae8fc;strokeColor=#6c8ebf;" vertex="1" parent="1">
          <mxGeometry x="374" y="150" width="40" height="40" as="geometry" />
        </mxCell>
        <mxCell id="QKiuofCyyoErHjTDMTAX-17" value="" style="endArrow=none;html=1;rounded=0;exitX=1;exitY=0;exitDx=0;exitDy=0;" edge="1" parent="1" source="QKiuofCyyoErHjTDMTAX-15">
          <mxGeometry width="50" height="50" relative="1" as="geometry">
            <mxPoint x="280" y="170" as="sourcePoint" />
            <mxPoint x="330" y="120" as="targetPoint" />
          </mxGeometry>
        </mxCell>
        <mxCell id="QKiuofCyyoErHjTDMTAX-18" value="" style="endArrow=none;html=1;rounded=0;exitX=0;exitY=0;exitDx=0;exitDy=0;" edge="1" parent="1" source="QKiuofCyyoErHjTDMTAX-16">
          <mxGeometry width="50" height="50" relative="1" as="geometry">
            <mxPoint x="320" y="156" as="sourcePoint" />
            <mxPoint x="346" y="120" as="targetPoint" />
          </mxGeometry>
        </mxCell>
        <mxCell id="QKiuofCyyoErHjTDMTAX-19" value="ephemeral node" style="text;html=1;align=center;verticalAlign=middle;whiteSpace=wrap;rounded=0;" vertex="1" parent="1">
          <mxGeometry x="287" y="60" width="106" height="20" as="geometry" />
        </mxCell>
        <mxCell id="QKiuofCyyoErHjTDMTAX-20" value="child 1" style="text;html=1;align=center;verticalAlign=middle;whiteSpace=wrap;rounded=0;" vertex="1" parent="1">
          <mxGeometry x="260" y="190" width="50" height="20" as="geometry" />
        </mxCell>
        <mxCell id="QKiuofCyyoErHjTDMTAX-21" value="child 2" style="text;html=1;align=center;verticalAlign=middle;whiteSpace=wrap;rounded=0;" vertex="1" parent="1">
          <mxGeometry x="369" y="190" width="50" height="20" as="geometry" />
        </mxCell>
      </root>
    </mxGraphModel>
  </diagram>
</mxfile>
